PathFileType	4	(X/Y/Z)	 control3min.trc
DataRate	CameraRate	NumFrames	NumMarkers	Units	OrigDataRate	OrigDataStartFrame	OrigNumFrames
200	200	9	35	m	200	126	1000
Frame#	Time	C7			LSH			RSH			MAN			RASI			LASI			HIPR			HIPL			RPSI			LPSI			COX			RTHI1			RTHI2			RTHI3			RTHI4			RSHA1			RSHA2			RSHA3			RSHA4			RHEEL			RMET5			RMET1			RTOE			LTHI1			LTHI2			LTHI3			LTHI4			LSHA1			LSHA2			LSHA3			LSHA4			LHEEL			LMET5			LMET1			LTOE			
		X1	Y1	Z1	X2	Y2	Z2	X3	Y3	Z3	X4	Y4	Z4	X5	Y5	Z5	X6	Y6	Z6	X7	Y7	Z7	X8	Y8	Z8	X9	Y9	Z9	X10	Y10	Z10	X11	Y11	Z11	X12	Y12	Z12	X13	Y13	Z13	X14	Y14	Z14	X15	Y15	Z15	X16	Y16	Z16	X17	Y17	Z17	X18	Y18	Z18	X19	Y19	Z19	X20	Y20	Z20	X21	Y21	Z21	X22	Y22	Z22	X23	Y23	Z23	X24	Y24	Z24	X25	Y25	Z25	X26	Y26	Z26	X27	Y27	Z27	X28	Y28	Z28	X29	Y29	Z29	X30	Y30	Z30	X31	Y31	Z31	X32	Y32	Z32	X33	Y33	Z33	X34	Y34	Z34	X35	Y35	Z35	
126	0.6300	-0.283948	1.388123	-0.549515	-0.210188	1.378831	-0.721024	-0.235589	1.362620	-0.377275	-0.156867	1.335826	-0.546565	-0.155686	0.944410	-0.427994	-0.141177	0.944960	-0.650164	-0.213018	0.999870	-0.406314	-0.197558	0.990660	-0.685504	-0.309485	0.979693	-0.496095	-0.306719	0.978058	-0.602904	-0.312966	0.987664	-0.547027	-0.238979	0.741056	-0.375931	-0.217892	0.685301	-0.375260	-0.156386	0.706516	-0.371488	-0.170960	0.766025	-0.372615	-0.238603	0.369078	-0.367972	-0.258519	0.330710	-0.372721	-0.202471	0.310449	-0.385739	-0.187874	0.348199	-0.385149	-0.374527	0.101972	-0.431734	-0.235531	0.029502	-0.382170	-0.204421	0.037912	-0.456055	-0.177439	0.028115	-0.456196	-0.210489	0.736608	-0.725488	-0.182800	0.681698	-0.720617	-0.124469	0.705944	-0.707655	-0.143473	0.763506	-0.710758	-0.240210	0.336451	-0.722902	-0.260059	0.301144	-0.722034	-0.203758	0.277658	-0.706609	-0.190454	0.319702	-0.710503	-0.381183	0.095079	-0.674899	-0.239241	0.032156	-0.720137	-0.205406	0.037376	-0.652961	-0.180048	0.025951	-0.648570	
127	0.6350	-0.283829	1.382535	-0.549297	-0.209896	1.373302	-0.720985	-0.234912	1.357016	-0.377024	-0.156260	1.329815	-0.546501	-0.156201	0.938975	-0.427663	-0.141653	0.939547	-0.650140	-0.213661	0.994007	-0.405803	-0.198192	0.984846	-0.685606	-0.310427	0.973842	-0.495879	-0.307549	0.972166	-0.602795	-0.313557	0.981858	-0.546788	-0.239092	0.735138	-0.375957	-0.217557	0.679583	-0.375145	-0.156221	0.701234	-0.370792	-0.171323	0.760679	-0.372096	-0.237399	0.364770	-0.368083	-0.257634	0.326553	-0.372970	-0.201754	0.305888	-0.386105	-0.186817	0.343476	-0.385389	-0.376093	0.098727	-0.432240	-0.236091	0.029127	-0.382069	-0.204665	0.037815	-0.456104	-0.177369	0.028030	-0.456162	-0.210102	0.730546	-0.725469	-0.182041	0.675792	-0.720880	-0.123797	0.700389	-0.708183	-0.143186	0.757835	-0.711002	-0.239719	0.332469	-0.722421	-0.260024	0.297417	-0.721588	-0.203977	0.273106	-0.706570	-0.190122	0.315003	-0.710345	-0.382947	0.091677	-0.674731	-0.239961	0.031530	-0.720593	-0.205675	0.037394	-0.653237	-0.180048	0.025924	-0.648712	
128	0.6400	-0.283620	1.376965	-0.549347	-0.209372	1.367550	-0.720991	-0.234282	1.351370	-0.376736	-0.155652	1.323810	-0.546433	-0.156747	0.933540	-0.427285	-0.142130	0.934083	-0.650150	-0.214346	0.988036	-0.405234	-0.198871	0.978900	-0.685753	-0.311458	0.967909	-0.495667	-0.308432	0.966178	-0.602691	-0.314095	0.975969	-0.546518	-0.239325	0.729356	-0.376031	-0.217328	0.674011	-0.375054	-0.156156	0.696077	-0.369904	-0.171830	0.755476	-0.371421	-0.235978	0.360567	-0.368155	-0.256504	0.322489	-0.373146	-0.200798	0.301486	-0.386525	-0.185564	0.338937	-0.385701	-0.377473	0.095625	-0.432777	-0.236482	0.028843	-0.382002	-0.204789	0.037715	-0.456151	-0.177227	0.027961	-0.456100	-0.209788	0.724364	-0.725404	-0.181344	0.669769	-0.721105	-0.123150	0.694731	-0.708938	-0.142920	0.752060	-0.711484	-0.239220	0.328573	-0.721998	-0.259905	0.293734	-0.721189	-0.204058	0.268733	-0.706591	-0.189740	0.310500	-0.710253	-0.384589	0.088245	-0.674480	-0.240569	0.030948	-0.721056	-0.205869	0.037406	-0.653511	-0.180016	0.025912	-0.648867	
129	0.6450	-0.283513	1.371512	-0.549266	-0.208976	1.361861	-0.721079	-0.233715	1.345711	-0.376392	-0.155028	1.317882	-0.546359	-0.157327	0.928162	-0.426853	-0.142607	0.928609	-0.650196	-0.215105	0.982003	-0.404605	-0.199596	0.972854	-0.685953	-0.312570	0.961927	-0.495479	-0.309370	0.960120	-0.602588	-0.314566	0.970039	-0.546221	-0.239684	0.723855	-0.376152	-0.217228	0.668700	-0.375019	-0.156257	0.691174	-0.368931	-0.172477	0.750528	-0.370649	-0.234368	0.356481	-0.368182	-0.255164	0.318550	-0.373281	-0.199658	0.297247	-0.387032	-0.184152	0.334566	-0.386082	-0.378642	0.092715	-0.433435	-0.236778	0.028628	-0.381976	-0.204861	0.037623	-0.456196	-0.177054	0.027907	-0.456034	-0.209556	0.718154	-0.725289	-0.180746	0.663715	-0.721255	-0.122562	0.689040	-0.709829	-0.142693	0.746250	-0.712137	-0.238716	0.324689	-0.721653	-0.259694	0.290034	-0.720843	-0.203992	0.264522	-0.706592	-0.189328	0.306191	-0.710193	-0.386111	0.084871	-0.674109	-0.241086	0.030454	-0.721457	-0.206033	0.037412	-0.653745	-0.179978	0.025912	-0.649019	
130	0.6500	-0.283481	1.366209	-0.549101	-0.208103	1.356114	-0.721172	-0.233211	1.340091	-0.375975	-0.154407	1.312089	-0.546275	-0.157932	0.922903	-0.426366	-0.143094	0.923176	-0.650282	-0.215959	0.975952	-0.403931	-0.200374	0.966752	-0.686206	-0.313748	0.955950	-0.495327	-0.310349	0.954044	-0.602496	-0.315069	0.964151	-0.545958	-0.240158	0.718734	-0.376339	-0.217270	0.663741	-0.375074	-0.156544	0.686632	-0.368015	-0.173237	0.745907	-0.369850	-0.232615	0.352535	-0.368189	-0.253683	0.314773	-0.373395	-0.198399	0.293191	-0.387629	-0.182638	0.330389	-0.386535	-0.379634	0.090020	-0.434192	-0.237047	0.028478	-0.382012	-0.204921	0.037556	-0.456254	-0.176885	0.027865	-0.455968	-0.209432	0.712086	-0.725102	-0.180311	0.657789	-0.721323	-0.122098	0.683434	-0.710769	-0.142535	0.740539	-0.712878	-0.238228	0.320808	-0.721397	-0.259417	0.286285	-0.720547	-0.203813	0.260444	-0.706501	-0.188913	0.302032	-0.710111	-0.387512	0.081619	-0.673581	-0.241548	0.030060	-0.721741	-0.206190	0.037414	-0.653910	-0.179951	0.025916	-0.649152	
131	0.6550	-0.283467	1.361231	-0.548772	-0.208097	1.350557	-0.721492	-0.232760	1.334566	-0.375476	-0.153813	1.306496	-0.546179	-0.158554	0.917833	-0.425816	-0.143585	0.917860	-0.650412	-0.216945	0.969950	-0.403224	-0.201222	0.960644	-0.686508	-0.314952	0.950063	-0.495256	-0.311355	0.948020	-0.602403	-0.315689	0.958436	-0.545766	-0.240720	0.714031	-0.376609	-0.217444	0.659202	-0.375238	-0.156994	0.682472	-0.367202	-0.174078	0.741654	-0.369098	-0.230794	0.348787	-0.368205	-0.252134	0.311209	-0.373508	-0.197097	0.289354	-0.388294	-0.181081	0.326444	-0.387026	-0.380474	0.087546	-0.435034	-0.237314	0.028381	-0.382110	-0.204984	0.037512	-0.456317	-0.176728	0.027841	-0.455893	-0.209461	0.706358	-0.724830	-0.180105	0.652176	-0.721323	-0.121835	0.678061	-0.711690	-0.142495	0.735090	-0.713619	-0.237770	0.316933	-0.721197	-0.259105	0.282502	-0.720263	-0.203564	0.256466	-0.706263	-0.188509	0.298001	-0.709951	-0.388783	0.078520	-0.672890	-0.241993	0.029754	-0.721901	-0.206343	0.037412	-0.654011	-0.179934	0.025929	-0.649270	
132	0.6600	-0.283305	1.356443	-0.548589	-0.208839	1.345142	-0.722017	-0.232387	1.329171	-0.374882	-0.153313	1.301085	-0.546089	-0.159175	0.913033	-0.425209	-0.144076	0.912748	-0.650583	-0.218081	0.964095	-0.402527	-0.202139	0.954609	-0.686861	-0.316134	0.944384	-0.495296	-0.312337	0.942132	-0.602306	-0.316351	0.953026	-0.545638	-0.241335	0.709774	-0.376983	-0.217718	0.655091	-0.375535	-0.157558	0.678709	-0.366537	-0.174966	0.737779	-0.368431	-0.228992	0.345300	-0.368251	-0.250605	0.307909	-0.373651	-0.195811	0.285798	-0.388988	-0.179548	0.322772	-0.387528	-0.381179	0.085285	-0.435976	-0.237580	0.028325	-0.382250	-0.205046	0.037491	-0.456368	-0.176576	0.027835	-0.455805	-0.209688	0.701168	-0.724474	-0.180192	0.647059	-0.721263	-0.121834	0.673077	-0.712529	-0.142614	0.730057	-0.714297	-0.237348	0.313087	-0.720997	-0.258778	0.278742	-0.719952	-0.203295	0.252593	-0.705872	-0.188129	0.294078	-0.709703	-0.389913	0.075591	-0.672054	-0.242422	0.029527	-0.721948	-0.206483	0.037405	-0.654057	-0.179916	0.025948	-0.649368	
133	0.6650	-0.283172	1.352148	-0.548213	-0.208520	1.340092	-0.722474	-0.232100	1.323984	-0.374210	-0.152869	1.295935	-0.546001	-0.159782	0.908574	-0.424558	-0.144560	0.907936	-0.650791	-0.219393	0.958479	-0.401890	-0.203140	0.948732	-0.687258	-0.317238	0.939048	-0.495468	-0.313266	0.936530	-0.602190	-0.317024	0.948057	-0.545608	-0.241968	0.705937	-0.377449	-0.218048	0.651385	-0.375960	-0.158205	0.675326	-0.366058	-0.175868	0.734277	-0.367866	-0.227294	0.342138	-0.368356	-0.249161	0.304941	-0.373832	-0.194605	0.282563	-0.389670	-0.178102	0.319415	-0.388019	-0.381758	0.083222	-0.436994	-0.237844	0.028294	-0.382412	-0.205103	0.037492	-0.456402	-0.176423	0.027841	-0.455709	-0.210143	0.696672	-0.724041	-0.180612	0.642592	-0.721153	-0.122137	0.668625	-0.713255	-0.142931	0.725590	-0.714876	-0.236949	0.309396	-0.720747	-0.258458	0.275121	-0.719586	-0.203036	0.248880	-0.705354	-0.187782	0.290315	-0.709344	-0.390905	0.072857	-0.671068	-0.242825	0.029366	-0.721900	-0.206598	0.037390	-0.654055	-0.179889	0.025967	-0.649450	
134	0.6700	-0.283252	1.348650	-0.547305	-0.208594	1.335108	-0.722995	-0.231874	1.319110	-0.373506	-0.152547	1.291094	-0.545913	-0.160360	0.904521	-0.423879	-0.145025	0.903521	-0.651018	-0.220872	0.953219	-0.401350	-0.204245	0.943129	-0.687683	-0.318211	0.934210	-0.495771	-0.314081	0.931376	-0.602050	-0.317662	0.943663	-0.545688	-0.242583	0.702473	-0.377992	-0.218394	0.648059	-0.376480	-0.158890	0.672293	-0.365777	-0.176743	0.731105	-0.367397	-0.225770	0.339341	-0.368552	-0.247871	0.302323	-0.374063	-0.193521	0.279689	-0.390299	-0.176796	0.316435	-0.388481	-0.382244	0.081358	-0.438024	-0.238100	0.028282	-0.382581	-0.205130	0.037497	-0.456439	-0.176268	0.027860	-0.455607	-0.210828	0.692906	-0.723541	-0.181346	0.638824	-0.721004	-0.122740	0.664780	-0.713849	-0.143467	0.721760	-0.715343	-0.236572	0.305970	-0.720408	-0.258161	0.271761	-0.719142	-0.202810	0.245414	-0.704739	-0.187460	0.286799	-0.708861	-0.391764	0.070320	-0.669932	-0.243205	0.029256	-0.721773	-0.206679	0.037370	-0.654017	-0.179849	0.025987	-0.649521	
